# xmcd CD database file
#
# Track frame offsets:
#	150
#	24830
#	48655
#	78778
#	113953
#	156959
#	185871
#	206138
#	244015
#	286851
#
# Disc length: 4495 seconds
#
# Revision: 0
# Processed by: cddbd v1.5.1PL0 Copyright (c) Steve Scherf et al.
# Submitted via: CDex 1.51
#
DISCID=86118d0a
DTITLE=Michel Petrucciani - The Very Best of Michel Petrucciani
DYEAR=2005
DGENRE=Jazz
TTITLE0=Home
TTITLE1=Lullaby
TTITLE2=St. Thomas
TTITLE3=Caravan
TTITLE4=Truble
TTITLE5=Brazilian Suite
TTITLE6=Miles Davis' Licks
TTITLE7=Here's That Rain Day
TTITLE8=Bite
TTITLE9=Bimini
EXTD=YEAR: 2005
EXTT0=
EXTT1=
EXTT2=
EXTT3=
EXTT4=
EXTT5=
EXTT6=
EXTT7=
EXTT8=
EXTT9=
PLAYORDER=
